<svg width="86" height="86" viewBox="0 0 86 46" fill="none" xmlns="http://www.w3.org/2000/svg">
    <path d="M12.9583 16.75H4.62499C3.51993 16.75 2.46012 17.189 1.67872 17.9704C0.897315 18.7518 0.458328 19.8116 0.458328 20.9167C0.458328 22.0217 0.897315 23.0815 1.67872 23.8629C2.46012 24.6443 3.51993 25.0833 4.62499 25.0833H12.9583C14.0634 25.0833 15.1232 24.6443 15.9046 23.8629C16.686 23.0815 17.125 22.0217 17.125 20.9167C17.125 19.8116 16.686 18.7518 15.9046 17.9704C15.1232 17.189 14.0634 16.75 12.9583 16.75ZM82.875 4.91666V4.66666C81.6812 3.20745 80.1728 2.03718 78.4627 1.24346C76.7526 0.449743 74.8851 0.0531343 73 0.0833296H39.9583C36.8967 0.05583 33.9314 1.15298 31.625 3.16666C29.4708 5.06472 28.0546 7.66125 27.625 10.5L23.9583 31.3333C23.643 33.1325 23.7258 34.9789 24.201 36.7425C24.6761 38.5062 25.5319 40.1444 26.7083 41.5417C27.8786 42.9343 29.3387 44.0547 30.9867 44.8248C32.6347 45.5948 34.431 45.9959 36.25 46H69.3333C72.3052 46.0449 75.1958 45.0294 77.4866 43.1357C79.7774 41.242 81.3185 38.5939 81.8333 35.6667L85.5 14.8333C85.7888 13.0888 85.7041 11.3028 85.2516 9.59331C84.7991 7.88387 83.9891 6.28989 82.875 4.91666ZM71.4583 8.41666L57.2917 19.9167C56.4541 20.5917 55.3878 20.9167 54.3161 20.8235C53.2443 20.7303 52.2502 20.2262 51.5417 19.4167L41.8333 8.41666H71.4583ZM73.4583 34.125C73.2897 35.1033 72.7772 35.9892 72.0134 36.6233C71.2495 37.2573 70.2843 37.5978 69.2917 37.5833H36.25C35.6449 37.5782 35.0482 37.4414 34.5013 37.1824C33.9545 36.9233 33.4706 36.5483 33.0833 36.0833C32.6951 35.6208 32.412 35.0794 32.2538 34.4967C32.0955 33.9139 32.0658 33.3037 32.1667 32.7083L35.5 13.8333L45.2917 24.9167C47.4229 27.339 50.4083 28.8435 53.6233 29.1153C56.8384 29.3871 60.034 28.4052 62.5417 26.375L76.875 14.6667L73.4583 34.125ZM17.125 0.0833296H4.62499C3.51993 0.0833296 2.46012 0.522317 1.67872 1.30372C0.897315 2.08512 0.458328 3.14493 0.458328 4.25C0.458328 5.35506 0.897315 6.41487 1.67872 7.19627C2.46012 7.97767 3.51993 8.41666 4.62499 8.41666H17.125C18.2301 8.41666 19.2899 7.97767 20.0713 7.19627C20.8527 6.41487 21.2917 5.35506 21.2917 4.25C21.2917 3.14493 20.8527 2.08512 20.0713 1.30372C19.2899 0.522317 18.2301 0.0833296 17.125 0.0833296Z" fill="white"/>
</svg>
