<svg width="100" height="100" viewBox="0 0 100 100" fill="none" xmlns="http://www.w3.org/2000/svg">
    <g id="spot">
        <path d="M50 9.36124C40.1061 9.36165 30.5352 12.8825 22.9998 19.2939C15.4644 25.7053 10.4562 34.5888 8.87136 44.3549C7.28649 54.121 9.22838 64.1324 14.3496 72.5977C19.4707 81.063 27.437 87.4299 36.823 90.5591C38.9063 90.9238 39.6876 89.6738 39.6876 88.5799C39.6876 87.5904 39.6354 84.3091 39.6354 80.8196C29.1666 82.7466 26.4583 78.2676 25.625 75.9239C24.7003 73.6444 23.2345 71.6243 21.3541 70.0383C19.8958 69.2571 17.8125 67.33 21.302 67.278C22.6345 67.4226 23.9124 67.8862 25.0276 68.6296C26.1428 69.3731 27.0623 70.3744 27.7083 71.5487C28.2782 72.5724 29.0445 73.4737 29.9633 74.2008C30.8821 74.9278 31.9353 75.4665 33.0626 75.7858C34.1899 76.1051 35.3692 76.1989 36.5328 76.0617C37.6964 75.9245 38.8215 75.559 39.8436 74.9862C40.024 72.868 40.9681 70.8874 42.5 69.4134C33.2291 68.3718 23.5416 64.7779 23.5416 48.8405C23.4831 44.6995 25.0112 40.6929 27.8125 37.6426C26.5386 34.0435 26.6877 30.0938 28.2291 26.6009C28.2291 26.6009 31.7186 25.5072 39.6875 30.8718C46.5053 28.9967 53.7029 28.9967 60.5208 30.8718C68.4895 25.4551 71.9791 26.6009 71.9791 26.6009C73.5208 30.0937 73.6698 34.0436 72.3958 37.6426C75.2056 40.6877 76.735 44.6977 76.6666 48.8405C76.6666 64.83 66.927 68.3718 57.6562 69.4134C58.6506 70.4213 59.4164 71.6313 59.9017 72.9614C60.387 74.2915 60.5804 75.7104 60.4687 77.1218C60.4687 82.6948 60.4166 87.1738 60.4166 88.5801C60.4166 89.6739 61.1979 90.9759 63.2812 90.5593C72.6506 87.4046 80.594 81.0228 85.6934 72.5531C90.7927 64.0834 92.7162 54.0772 91.1203 44.3206C89.5245 34.5639 84.5132 25.6919 76.9811 19.2884C69.449 12.8848 59.8863 9.36638 50 9.36124Z"
              fill="white"/>
    </g>

    <g id="hoverSpot">
        <path fill-rule="evenodd" clip-rule="evenodd"
              d="M85.7852 0.0360206C101.496 -0.682995 115.271 9.49381 128.538 18.7928C142.692 28.7146 159.881 37.6645 164.714 55.3621C169.527 72.985 159.777 90.8775 152.791 107.595C146.594 122.426 138.989 136.503 126.876 145.912C114.885 155.225 100.348 161.615 85.7852 159.641C71.9985 157.773 63.7442 142.784 51.4371 135.689C35.8671 126.713 13.2706 129.457 4.4181 112.735C-4.44637 95.9896 1.49371 73.5911 9.39468 56.2707C16.6576 40.3489 32.0889 32.492 45.5382 22.5914C58.3669 13.1476 70.3688 0.741563 85.7852 0.0360206Z"
              fill="#002265"/>
    </g>
    <g id="gitHub">
        <path d="M50 9.36124C40.1061 9.36165 30.5352 12.8825 22.9998 19.2939C15.4644 25.7053 10.4562 34.5888 8.87136 44.3549C7.28649 54.121 9.22838 64.1324 14.3496 72.5977C19.4707 81.063 27.437 87.4299 36.823 90.5591C38.9063 90.9238 39.6876 89.6738 39.6876 88.5799C39.6876 87.5904 39.6354 84.3091 39.6354 80.8196C29.1666 82.7466 26.4583 78.2676 25.625 75.9239C24.7003 73.6444 23.2345 71.6243 21.3541 70.0383C19.8958 69.2571 17.8125 67.33 21.302 67.278C22.6345 67.4226 23.9124 67.8862 25.0276 68.6296C26.1428 69.3731 27.0623 70.3744 27.7083 71.5487C28.2782 72.5724 29.0445 73.4737 29.9633 74.2008C30.8821 74.9278 31.9353 75.4665 33.0626 75.7858C34.1899 76.1051 35.3692 76.1989 36.5328 76.0617C37.6964 75.9245 38.8215 75.559 39.8436 74.9862C40.024 72.868 40.9681 70.8874 42.5 69.4134C33.2291 68.3718 23.5416 64.7779 23.5416 48.8405C23.4831 44.6995 25.0112 40.6929 27.8125 37.6426C26.5386 34.0435 26.6877 30.0938 28.2291 26.6009C28.2291 26.6009 31.7186 25.5072 39.6875 30.8718C46.5053 28.9967 53.7029 28.9967 60.5208 30.8718C68.4895 25.4551 71.9791 26.6009 71.9791 26.6009C73.5208 30.0937 73.6698 34.0436 72.3958 37.6426C75.2056 40.6877 76.735 44.6977 76.6666 48.8405C76.6666 64.83 66.927 68.3718 57.6562 69.4134C58.6506 70.4213 59.4164 71.6313 59.9017 72.9614C60.387 74.2915 60.5804 75.7104 60.4687 77.1218C60.4687 82.6948 60.4166 87.1738 60.4166 88.5801C60.4166 89.6739 61.1979 90.9759 63.2812 90.5593C72.6506 87.4046 80.594 81.0228 85.6934 72.5531C90.7927 64.0834 92.7162 54.0772 91.1203 44.3206C89.5245 34.5639 84.5132 25.6919 76.9811 19.2884C69.449 12.8848 59.8863 9.36638 50 9.36124Z"
              fill="white"/>
    </g>
    <g id="mail">
        <path d="M12.9583 16.75H4.62499C3.51993 16.75 2.46012 17.189 1.67872 17.9704C0.897315 18.7518 0.458328 19.8116 0.458328 20.9167C0.458328 22.0217 0.897315 23.0815 1.67872 23.8629C2.46012 24.6443 3.51993 25.0833 4.62499 25.0833H12.9583C14.0634 25.0833 15.1232 24.6443 15.9046 23.8629C16.686 23.0815 17.125 22.0217 17.125 20.9167C17.125 19.8116 16.686 18.7518 15.9046 17.9704C15.1232 17.189 14.0634 16.75 12.9583 16.75ZM82.875 4.91666V4.66666C81.6812 3.20745 80.1728 2.03718 78.4627 1.24346C76.7526 0.449743 74.8851 0.0531343 73 0.0833296H39.9583C36.8967 0.05583 33.9314 1.15298 31.625 3.16666C29.4708 5.06472 28.0546 7.66125 27.625 10.5L23.9583 31.3333C23.643 33.1325 23.7258 34.9789 24.201 36.7425C24.6761 38.5062 25.5319 40.1444 26.7083 41.5417C27.8786 42.9343 29.3387 44.0547 30.9867 44.8248C32.6347 45.5948 34.431 45.9959 36.25 46H69.3333C72.3052 46.0449 75.1958 45.0294 77.4866 43.1357C79.7774 41.242 81.3185 38.5939 81.8333 35.6667L85.5 14.8333C85.7888 13.0888 85.7041 11.3028 85.2516 9.59331C84.7991 7.88387 83.9891 6.28989 82.875 4.91666ZM71.4583 8.41666L57.2917 19.9167C56.4541 20.5917 55.3878 20.9167 54.3161 20.8235C53.2443 20.7303 52.2502 20.2262 51.5417 19.4167L41.8333 8.41666H71.4583ZM73.4583 34.125C73.2897 35.1033 72.7772 35.9892 72.0134 36.6233C71.2495 37.2573 70.2843 37.5978 69.2917 37.5833H36.25C35.6449 37.5782 35.0482 37.4414 34.5013 37.1824C33.9545 36.9233 33.4706 36.5483 33.0833 36.0833C32.6951 35.6208 32.412 35.0794 32.2538 34.4967C32.0955 33.9139 32.0658 33.3037 32.1667 32.7083L35.5 13.8333L45.2917 24.9167C47.4229 27.339 50.4083 28.8435 53.6233 29.1153C56.8384 29.3871 60.034 28.4052 62.5417 26.375L76.875 14.6667L73.4583 34.125ZM17.125 0.0833296H4.62499C3.51993 0.0833296 2.46012 0.522317 1.67872 1.30372C0.897315 2.08512 0.458328 3.14493 0.458328 4.25C0.458328 5.35506 0.897315 6.41487 1.67872 7.19627C2.46012 7.97767 3.51993 8.41666 4.62499 8.41666H17.125C18.2301 8.41666 19.2899 7.97767 20.0713 7.19627C20.8527 6.41487 21.2917 5.35506 21.2917 4.25C21.2917 3.14493 20.8527 2.08512 20.0713 1.30372C19.2899 0.522317 18.2301 0.0833296 17.125 0.0833296Z"
              fill="white"/>
    </g>
    <g id="telega">
        <path d="M20.57227,3.01172c-0.33237,-0.03525 -0.69364,0.01666 -1.05664,0.16016c-0.45,0.177 -7.50122,3.14316 -14.07422,5.91016l-2.17188,0.91406c-0.841,0.341 -1.26562,0.89558 -1.26562,1.64258c0,0.523 0.22134,1.23239 1.27734,1.65039l3.66602,1.46875c0.317,0.951 1.05328,3.15909 1.23828,3.74609c0.11,0.348 0.38784,1.22469 1.08984,1.42969c0.144,0.049 0.29427,0.07422 0.44727,0.07422c0.443,0 0.76197,-0.20617 0.91797,-0.32617l2.33008,-1.9707l2.83008,2.61719c0.109,0.111 0.68594,0.67188 1.46094,0.67188c0.967,0 1.70051,-0.80498 1.85352,-1.58398c0.083,-0.427 2.8125,-14.12895 2.8125,-14.12695c0.245,-1.099 -0.19552,-1.66911 -0.47852,-1.91211c-0.2425,-0.2075 -0.54458,-0.32998 -0.87695,-0.36523zM19.91016,5.17188c-0.377,1.89 -2.43214,12.20636 -2.74414,13.69336l-4.13672,-3.82617l-2.80664,2.37695l0.77734,-3.04102c0,0 5.36255,-5.42814 5.68555,-5.74414c0.26,-0.253 0.31445,-0.34169 0.31445,-0.42969c0,-0.117 -0.06022,-0.20117 -0.19922,-0.20117c-0.125,0 -0.29477,0.11978 -0.38477,0.17578c-1.14335,0.71282 -6.01192,3.48646 -8.4082,4.84961l-3.47656,-1.38867l1.6875,-0.70899c4.299,-1.81 11.95541,-5.03386 13.69141,-5.75586z" fill="white"/>
    </g>
    <g id="telephon">
        <path d="M73 46.1667C72.0833 46.1667 71.125 45.875 70.2083 45.6667C68.352 45.2576 66.5278 44.7145 64.75 44.0417C62.817 43.3385 60.6923 43.375 58.7846 44.1442C56.8769 44.9134 55.3212 46.361 54.4167 48.2083L53.5 50.0833C49.4417 47.8257 45.7124 45.0218 42.4167 41.75C39.1449 38.4542 36.3409 34.725 34.0833 30.6667L35.8333 29.5C37.6807 28.5955 39.1282 27.0397 39.8975 25.1321C40.6667 23.2244 40.7032 21.0996 40 19.1667C39.3384 17.3851 38.7956 15.5617 38.375 13.7083C38.1667 12.7917 38 11.8333 37.875 10.875C37.369 7.94009 35.8318 5.28227 33.5401 3.38017C31.2484 1.47808 28.3529 0.456713 25.375 0.50001H12.875C11.0793 0.483149 9.30103 0.853399 7.66128 1.58555C6.02153 2.31771 4.55878 3.39458 3.37262 4.74285C2.18645 6.09113 1.30472 7.67915 0.787443 9.39882C0.270166 11.1185 0.12949 12.9294 0.374993 14.7083C2.59474 32.1641 10.5668 48.3828 23.0319 60.8027C35.497 73.2225 51.7446 81.1355 69.2083 83.2917H70.7917C73.8642 83.2962 76.8308 82.1689 79.125 80.125C80.4432 78.946 81.4962 77.5007 82.2144 75.8847C82.9327 74.2686 83.2999 72.5185 83.2917 70.75V58.25C83.2406 55.3558 82.1867 52.569 80.3097 50.3653C78.4328 48.1616 75.8492 46.6776 73 46.1667ZM75.0833 71.1667C75.0826 71.7583 74.9558 72.3429 74.7116 72.8818C74.4673 73.4206 74.1111 73.9012 73.6667 74.2917C73.2025 74.6959 72.6582 74.9976 72.0695 75.1771C71.4807 75.3566 70.8607 75.4098 70.25 75.3333C54.6454 73.3325 40.151 66.1937 29.053 55.0429C17.955 43.8921 10.885 29.3639 8.95833 13.75C8.89201 13.1397 8.95013 12.5222 9.12917 11.935C9.30821 11.3477 9.60445 10.8029 9.99999 10.3333C10.3905 9.88889 10.8711 9.53268 11.4099 9.28841C11.9487 9.04415 12.5334 8.91743 13.125 8.91668H25.625C26.5939 8.89512 27.5401 9.21201 28.3006 9.8128C29.0611 10.4136 29.5884 11.2607 29.7917 12.2083C29.9583 13.3472 30.1667 14.4722 30.4167 15.5833C30.898 17.7798 31.5386 19.9383 32.3333 22.0417L26.5 24.75C26.0012 24.9788 25.5526 25.304 25.1798 25.7067C24.807 26.1094 24.5175 26.5817 24.3278 27.0967C24.1381 27.6116 24.052 28.1589 24.0744 28.7072C24.0968 29.2555 24.2272 29.7939 24.4583 30.2917C30.455 43.1365 40.7802 53.4617 53.625 59.4583C54.6394 59.8751 55.7772 59.8751 56.7917 59.4583C57.3113 59.2725 57.7888 58.9852 58.1965 58.6133C58.6042 58.2413 58.934 57.7921 59.1667 57.2917L61.75 51.4583C63.904 52.2287 66.1024 52.8687 68.3333 53.375C69.4444 53.625 70.5694 53.8333 71.7083 54C72.6559 54.2033 73.5031 54.7306 74.1039 55.4911C74.7047 56.2516 75.0216 57.1977 75 58.1667L75.0833 71.1667Z"
              fill="white"/>
    </g>
</svg>